Full Credits To Feel Free :)

 ######## ######## ######## ##          ######## ########  ######## ######## 
 ##       ##       ##       ##          ##       ##     ## ##       ##       
 ##       ##       ##       ##          ##       ##     ## ##       ##       
 ######   ######   ######   ##          ######   ########  ######   ######   
 ##       ##       ##       ##          ##       ##   ##   ##       ##       
 ##       ##       ##       ##          ##       ##    ##  ##       ##       
 ##       ######## ######## ########    ##       ##     ## ######## ########

Genre:Action | Adventure | Drama 
 Language:English
 IMDb: 
http://www.imdb.com/title/tt1270798/
 Source:1080p.x264.DTS-HDChina Thanks!

 Format : MPEG-4
 Format profile : Base Media
 Codec ID : isom
 File size : 3.08 GiB
 Duration : 2h 11mn
 Overall bit rate : 3 353 Kbps

 Video
 ID : 1
 Format : AVC
 Format/Info : Advanced Video Codec
 Format profile : High@L4.1
 Format settings, CABAC : Yes
 Format settings, ReFrames : 3 frames
 Format settings, GOP : M=1, N=2
 Codec ID : avc1
 Codec ID/Info : Advanced Video Coding
 Duration : 2h 11mn
 Bit rate mode : Variable
 Bit rate : 3 000 Kbps
 Maximum bit rate : 19.0 Mbps
 Width : 1 280 pixels
 Height : 544 pixels
 Display aspect ratio : 2.35:1
 Frame rate mode : Constant
 Frame rate : 23.976 fps
 Color space : YUV
 Chroma subsampling : 4:2:0
 Bit depth : 8 bits
 Scan type : Progressive
 Bits/(Pixel*Frame) : 0.180
 Stream size : 2.67 GiB (87%)
 Writing library : x264

 Audio
 ID : 2
 Format : AAC
 Format/Info : Advanced Audio Codec
 Format version : Version 4
 Format profile : LC
 Format settings, SBR : No
 Codec ID : 40
 Duration : 2h 11mn
 Bit rate mode : Variable
 Bit rate : 445 Kbps
 Maximum bit rate : 521 Kbps
 Channel(s) : 6 channels
 Channel positions : Front: L C R, Side: L R, LFE
 Sampling rate : 48.0 KHz
 Stream size : 419 MiB (13%)

 Plot:
 In 1962, Charles Xavier starts up a school and later a team, for humans with superhuman abilities. Among them is Erik Lensherr, his best friend... and future archenemy


Greets:

 INK,CRYS,IMAGINE,LKRG,FXG,3Li,FLAWL3SS,TA,iLLUSiON,ViSiON,DTRG 
 SAFCuk009,LU,TheFalcon007,MYSTiC,PrisM,Noir,WBZ,LAP,Rx,Kingdom,SAFCuk009+Fabreezy,
 HDLiTE,TWiZTED,ExtraTorrentRG.ELEKTRI4KA,MAGNAT,CM8
 And to all the other p2p grps past and present






==================================                                      
http://thepiratebay.org/user/hiest
==================================






Screenshots:
 
http://www.pix2links.com/images/61231801869505717059.png
 
http://www.pix2links.com/images/05032967936156222258.png
 
http://www.pix2links.com/images/78530483578527729819.png
 
http://www.pix2links.com/images/41832768696576451305.png
 
http://www.pix2links.com/images/88162623651269084396.png
 
http://www.pix2links.com/images/46440566000678193667.png
 
http://www.pix2links.com/images/90314625248033358914.png


Full Credits To Feel Free :)

 ######## ######## ######## ##          ######## ########  ######## ######## 
 ##       ##       ##       ##          ##       ##     ## ##       ##       
 ##       ##       ##       ##          ##       ##     ## ##       ##       
 ######   ######   ######   ##          ######   ########  ######   ######   
 ##       ##       ##       ##          ##       ##   ##   ##       ##       
 ##       ##       ##       ##          ##       ##    ##  ##       ##       
 ##       ######## ######## ########    ##       ##     ## ######## ########